<?xml version="1.0" encoding="utf-8"?>
<!-- Generator: Adobe Illustrator 22.1.0, SVG Export Plug-In . SVG Version: 6.00 Build 0)  -->
<svg version="1.1" id="Capa_1" xmlns="http://www.w3.org/2000/svg" xmlns:xlink="http://www.w3.org/1999/xlink" x="0px" y="0px"
	 viewBox="0 0 1080 1080" style="enable-background:new 0 0 1080 1080;" xml:space="preserve">
<style type="text/css">
	.st0{fill:#FBAE17;}
	.st1{fill:#D3805C;}
	.st2{fill:#B64024;}
	.st3{fill:#672812;}
</style>
<g>
	<circle class="st0" cx="336.5" cy="324.7" r="65.2"/>
	<path class="st1" d="M334.5,715c-31.7,17.6-58.8,25.9-85.5,25.9c-31.6,0-61.1-9.5-85.7-25.7v79.4c24.5,16.4,54,26,85.7,26
		c26.4,0,53.3-8.2,84.7-25.7c30.2-16.8,57.1-28,90.1-28c31.6,0,61.1,9.5,85.7,25.7v-79.4c-24.5-16.4-54-26-85.7-26
		C391.2,687.2,364.5,698.3,334.5,715z"/>
	<path class="st2" d="M334.5,598.8c-31.7,17.6-58.8,25.9-85.5,25.9c-31.6,0-61.1-9.5-85.7-25.7v79.4c24.5,16.4,54,26,85.7,26
		c26.4,0,53.3-8.2,84.7-25.7c30.2-16.8,57.1-28,90.1-28c31.6,0,61.1,9.5,85.7,25.7V597c-24.5-16.4-54-26-85.7-26
		C391.2,571,364.5,582.1,334.5,598.8z"/>
	<path class="st3" d="M333.8,560.5c30.2-16.8,57.1-28,90.1-28c31.6,0,61.1,9.5,85.7,25.7v-79.4c-24.5-16.4-54-26-85.7-26
		c-32.7,0-59.3,11.1-89.3,27.8c-31.7,17.6-58.8,25.9-85.5,25.9c-31.6,0-61.1-9.5-85.7-25.7v79.4c24.5,16.4,54,26,85.7,26
		C275.4,586.1,302.3,578,333.8,560.5z"/>
</g>
<g>
	<circle cx="887.7" cy="334.4" r="20.5"/>
	<path d="M887,456.8c-9.9,5.5-18.4,8.1-26.8,8.1c-9.9,0-19.2-3-26.9-8.1v24.9c7.7,5.1,16.9,8.2,26.9,8.2c8.3,0,16.7-2.6,26.6-8
		c9.5-5.3,17.9-8.8,28.3-8.8c9.9,0,19.2,3,26.9,8.1v-24.9c-7.7-5.1-16.9-8.2-26.9-8.2C904.8,448.1,896.4,451.5,887,456.8z"/>
	<path d="M887,420.4c-9.9,5.5-18.4,8.1-26.8,8.1c-9.9,0-19.2-3-26.9-8.1v24.9c7.7,5.1,16.9,8.2,26.9,8.2c8.3,0,16.7-2.6,26.6-8
		c9.5-5.3,17.9-8.8,28.3-8.8c9.9,0,19.2,3,26.9,8.1v-24.9c-7.7-5.1-16.9-8.2-26.9-8.2C904.8,411.6,896.4,415.1,887,420.4z"/>
	<path d="M886.8,408.3c9.5-5.3,17.9-8.8,28.3-8.8c9.9,0,19.2,3,26.9,8.1v-24.9c-7.7-5.1-16.9-8.2-26.9-8.2c-10.2,0-18.6,3.5-28,8.7
		c-9.9,5.5-18.4,8.1-26.8,8.1c-9.9,0-19.2-3-26.9-8.1v24.9c7.7,5.1,16.9,8.2,26.9,8.2C868.5,416.4,876.9,413.8,886.8,408.3z"/>
</g>
<g>
	<circle class="st3" cx="719.7" cy="339.2" r="20.5"/>
	<path class="st3" d="M719.1,461.6c-9.9,5.5-18.4,8.1-26.8,8.1c-9.9,0-19.2-3-26.9-8.1v24.9c7.7,5.1,16.9,8.2,26.9,8.2
		c8.3,0,16.7-2.6,26.6-8c9.5-5.3,17.9-8.8,28.3-8.8c9.9,0,19.2,3,26.9,8.1V461c-7.7-5.1-16.9-8.2-26.9-8.2
		C736.8,452.9,728.5,456.3,719.1,461.6z"/>
	<path class="st3" d="M719.1,425.2c-9.9,5.5-18.4,8.1-26.8,8.1c-9.9,0-19.2-3-26.9-8.1v24.9c7.7,5.1,16.9,8.2,26.9,8.2
		c8.3,0,16.7-2.6,26.6-8c9.5-5.3,17.9-8.8,28.3-8.8c9.9,0,19.2,3,26.9,8.1v-24.9c-7.7-5.1-16.9-8.2-26.9-8.2
		C736.8,416.4,728.5,419.9,719.1,425.2z"/>
	<path class="st3" d="M718.8,413.1c9.5-5.3,17.9-8.8,28.3-8.8c9.9,0,19.2,3,26.9,8.1v-24.9c-7.7-5.1-16.9-8.2-26.9-8.2
		c-10.2,0-18.6,3.5-28,8.7c-9.9,5.5-18.4,8.1-26.8,8.1c-9.9,0-19.2-3-26.9-8.1V413c7.7,5.1,16.9,8.2,26.9,8.2
		C700.5,421.2,709,418.6,718.8,413.1z"/>
</g>
<g>
	<circle class="st2" cx="719.7" cy="585.5" r="20.5"/>
	<path class="st2" d="M719.1,707.9c-9.9,5.5-18.4,8.1-26.8,8.1c-9.9,0-19.2-3-26.9-8.1v24.9c7.7,5.1,16.9,8.2,26.9,8.2
		c8.3,0,16.7-2.6,26.6-8c9.5-5.3,17.9-8.8,28.3-8.8c9.9,0,19.2,3,26.9,8.1v-24.9c-7.7-5.1-16.9-8.2-26.9-8.2
		C736.8,699.2,728.5,702.7,719.1,707.9z"/>
	<path class="st2" d="M719.1,671.5c-9.9,5.5-18.4,8.1-26.8,8.1c-9.9,0-19.2-3-26.9-8.1v24.9c7.7,5.1,16.9,8.2,26.9,8.2
		c8.3,0,16.7-2.6,26.6-8c9.5-5.3,17.9-8.8,28.3-8.8c9.9,0,19.2,3,26.9,8.1v-24.9c-7.7-5.1-16.9-8.2-26.9-8.2
		C736.8,662.8,728.5,666.3,719.1,671.5z"/>
	<path class="st2" d="M718.8,659.5c9.5-5.3,17.9-8.8,28.3-8.8c9.9,0,19.2,3,26.9,8.1v-24.9c-7.7-5.1-16.9-8.2-26.9-8.2
		c-10.2,0-18.6,3.5-28,8.7c-9.9,5.5-18.4,8.1-26.8,8.1c-9.9,0-19.2-3-26.9-8.1v24.9c7.7,5.1,16.9,8.2,26.9,8.2
		C700.5,667.5,709,665,718.8,659.5z"/>
</g>
<g>
	<circle class="st0" cx="890.1" cy="585.5" r="20.5"/>
	<path class="st0" d="M889.5,707.9c-9.9,5.5-18.4,8.1-26.8,8.1c-9.9,0-19.2-3-26.9-8.1v24.9c7.7,5.1,16.9,8.2,26.9,8.2
		c8.3,0,16.7-2.6,26.6-8c9.5-5.3,17.9-8.8,28.3-8.8c9.9,0,19.2,3,26.9,8.1v-24.9c-7.7-5.1-16.9-8.2-26.9-8.2
		C907.3,699.2,898.9,702.7,889.5,707.9z"/>
	<path class="st0" d="M889.5,671.5c-9.9,5.5-18.4,8.1-26.8,8.1c-9.9,0-19.2-3-26.9-8.1v24.9c7.7,5.1,16.9,8.2,26.9,8.2
		c8.3,0,16.7-2.6,26.6-8c9.5-5.3,17.9-8.8,28.3-8.8c9.9,0,19.2,3,26.9,8.1v-24.9c-7.7-5.1-16.9-8.2-26.9-8.2
		C907.3,662.8,898.9,666.3,889.5,671.5z"/>
	<path class="st0" d="M889.3,659.5c9.5-5.3,17.9-8.8,28.3-8.8c9.9,0,19.2,3,26.9,8.1v-24.9c-7.7-5.1-16.9-8.2-26.9-8.2
		c-10.2,0-18.6,3.5-28,8.7c-9.9,5.5-18.4,8.1-26.8,8.1c-9.9,0-19.2-3-26.9-8.1v24.9c7.7,5.1,16.9,8.2,26.9,8.2
		C871,667.5,879.4,665,889.3,659.5z"/>
</g>
</svg>
