<?xml version="1.0" encoding="utf-8"?>
<!-- Generator: Adobe Illustrator 22.1.0, SVG Export Plug-In . SVG Version: 6.00 Build 0)  -->
<svg version="1.1" id="Capa_1" xmlns="http://www.w3.org/2000/svg" xmlns:xlink="http://www.w3.org/1999/xlink" x="0px" y="0px"
	 viewBox="0 0 1080 1080" style="enable-background:new 0 0 1080 1080;" xml:space="preserve">
<style type="text/css">
	.st0{fill:#FAAD17;}
	.st1{fill:#D3805C;}
	.st2{fill:#C54525;}
	.st3{fill:#672812;}
	.st4{fill:#B64024;}
	.st5{fill:#FBAE17;}
</style>
<g>
	<circle class="st0" cx="316.2" cy="295.7" r="57.3"/>
	<path class="st1" d="M314.5,638.4c-27.8,15.5-51.6,22.7-75,22.7c-27.8,0-53.6-8.3-75.3-22.6v69.7c21.6,14.4,47.4,22.8,75.3,22.8
		c23.1,0,46.8-7.2,74.4-22.5c26.5-14.8,50.1-24.6,79.1-24.6c27.8,0,53.6,8.3,75.3,22.6v-69.7C446.7,622.4,420.8,614,393,614
		C364.3,614,340.8,623.7,314.5,638.4z"/>
	<path class="st2" d="M314.5,536.4c-27.8,15.5-51.6,22.7-75,22.7c-27.8,0-53.6-8.3-75.3-22.6v69.7c21.6,14.4,47.4,22.8,75.3,22.8
		c23.1,0,46.8-7.2,74.4-22.5C340.4,591.8,364,582,393,582c27.8,0,53.6,8.3,75.3,22.6v-69.7C446.7,520.4,420.8,512,393,512
		C364.3,512,340.8,521.7,314.5,536.4z"/>
	<path class="st3" d="M313.8,502.7c26.5-14.8,50.1-24.6,79.1-24.6c27.8,0,53.6,8.3,75.3,22.6V431c-21.6-14.4-47.4-22.8-75.3-22.8
		c-28.7,0-52.1,9.8-78.4,24.4c-27.8,15.5-51.6,22.7-75,22.7c-27.8,0-53.6-8.3-75.3-22.6v69.7c21.6,14.4,47.4,22.8,75.3,22.8
		C262.6,525.3,286.3,518.1,313.8,502.7z"/>
	<g>
		<path class="st3" d="M164.3,776.4h12.3l0.6,6.2c6.2-4.9,13.1-7.4,20.6-7.4c4,0,7.2,0.6,9.6,1.9c2.4,1.3,4.2,3.2,5.6,5.7
			c3-2.4,6.2-4.3,9.8-5.6c3.6-1.4,7.7-2,12.3-2c6.7,0,11.7,1.7,14.9,5.2c3.2,3.5,4.8,8.8,4.8,15.9v38.6h-13.2v-37.3
			c0-4.4-0.9-7.6-2.8-9.4c-1.9-1.8-5-2.8-9.3-2.8c-2.8,0-5.5,0.5-8,1.5c-2.5,1-4.7,2.5-6.4,4.4c0.4,1.6,0.6,3.6,0.6,6v37.5h-12.5
			v-37.1c0-4.4-0.8-7.6-2.3-9.5c-1.5-1.9-4.3-2.8-8.3-2.8c-5.2,0-10.2,2.3-15.2,6.9v42.6h-13.2V776.4z"/>
		<path class="st3" d="M271.4,831.5c-3.9-3.1-5.9-7.5-5.9-13.3c0-5.8,2-10.3,5.9-13.6c3.9-3.3,9.8-5,17.6-5h18.7V797
			c0-2.9-0.4-5.1-1.3-6.7c-0.9-1.6-2.4-2.8-4.8-3.5c-2.3-0.7-5.6-1.1-9.9-1.1c-6.9,0-13.4,1-19.4,3.1v-10c2.8-1.1,6.1-1.9,9.9-2.6
			c3.8-0.7,7.8-1,12-1c8.7,0,15.3,1.8,19.7,5.3c4.4,3.5,6.6,9.1,6.6,16.8v37.6h-11.5l-0.9-5.9c-2.5,2.4-5.5,4.2-9,5.4
			c-3.5,1.2-7.9,1.8-13,1.8C280.3,836.1,275.4,834.6,271.4,831.5z M300.2,824.5c3-1.3,5.6-3.2,7.5-5.6v-10.2h-18.5
			c-3.9,0-6.8,0.7-8.6,2.2c-1.8,1.5-2.7,3.8-2.7,7c0,3,1,5.1,3,6.5c2,1.4,4.9,2,8.9,2C293.7,826.5,297.1,825.8,300.2,824.5z"/>
		<path class="st3" d="M338.9,831.5c-3.9-3.1-5.9-7.5-5.9-13.3c0-5.8,2-10.3,5.9-13.6s9.8-5,17.6-5h18.7V797c0-2.9-0.4-5.1-1.3-6.7
			c-0.9-1.6-2.4-2.8-4.8-3.5c-2.3-0.7-5.6-1.1-9.9-1.1c-6.9,0-13.4,1-19.4,3.1v-10c2.8-1.1,6.1-1.9,9.9-2.6c3.8-0.7,7.8-1,12-1
			c8.7,0,15.3,1.8,19.7,5.3c4.4,3.5,6.6,9.1,6.6,16.8v37.6h-11.5l-0.9-5.9c-2.5,2.4-5.5,4.2-9,5.4c-3.5,1.2-7.9,1.8-13,1.8
			C347.8,836.1,342.9,834.6,338.9,831.5z M367.7,824.5c3-1.3,5.6-3.2,7.5-5.6v-10.2h-18.5c-3.9,0-6.8,0.7-8.6,2.2
			c-1.8,1.5-2.7,3.8-2.7,7c0,3,1,5.1,3,6.5c2,1.4,4.9,2,8.9,2C361.2,826.5,364.6,825.8,367.7,824.5z"/>
		<path class="st3" d="M408.2,831.2c-3.1-3.2-4.7-7.8-4.7-13.8v-30.6h-8.6v-10.5h8.6V763l13.3-4.1v17.5h15.5l-0.9,10.5h-14.7v29.9
			c0,3.4,0.8,5.7,2.3,7.1c1.5,1.4,4.1,2,7.7,2c2.2,0,4.6-0.4,7-1.2v9.5c-3.2,1.3-7.1,2-11.7,2C416,836.1,411.4,834.5,408.2,831.2z"
			/>
		<polygon class="st3" points="453.5,786.6 444.6,786.6 445.9,776.4 467,776.4 467,834.9 453.5,834.9 		"/>
	</g>
</g>
<g>
	<circle cx="684.4" cy="349.5" r="20"/>
	<path d="M683.8,469c-9.7,5.4-18,7.9-26.2,7.9c-9.7,0-18.7-2.9-26.2-7.9v24.3c7.5,5,16.5,8,26.2,8c8.1,0,16.3-2.5,25.9-7.9
		c9.2-5.2,17.5-8.6,27.6-8.6c9.7,0,18.7,2.9,26.2,7.9v-24.3c-7.5-5-16.5-8-26.2-8C701.2,460.5,693,463.9,683.8,469z"/>
	<path d="M683.8,433.5c-9.7,5.4-18,7.9-26.2,7.9c-9.7,0-18.7-2.9-26.2-7.9v24.3c7.5,5,16.5,8,26.2,8c8.1,0,16.3-2.5,25.9-7.9
		c9.2-5.2,17.5-8.6,27.6-8.6c9.7,0,18.7,2.9,26.2,7.9v-24.3c-7.5-5-16.5-8-26.2-8C701.2,424.9,693,428.3,683.8,433.5z"/>
	<path d="M683.6,421.7c9.2-5.2,17.5-8.6,27.6-8.6c9.7,0,18.7,2.9,26.2,7.9v-24.3c-7.5-5-16.5-8-26.2-8c-10,0-18.2,3.4-27.3,8.5
		c-9.7,5.4-18,7.9-26.2,7.9c-9.7,0-18.7-2.9-26.2-7.9v24.3c7.5,5,16.5,8,26.2,8C665.7,429.6,674,427.1,683.6,421.7z"/>
	<g>
		<path d="M631.4,517.1h4.3l0.2,2.2c2.2-1.7,4.6-2.6,7.2-2.6c1.4,0,2.5,0.2,3.4,0.7c0.8,0.4,1.5,1.1,1.9,2c1-0.8,2.2-1.5,3.4-2
			c1.2-0.5,2.7-0.7,4.3-0.7c2.3,0,4.1,0.6,5.2,1.8c1.1,1.2,1.7,3.1,1.7,5.5v13.5h-4.6v-13c0-1.5-0.3-2.6-1-3.3c-0.7-0.6-1.7-1-3.2-1
			c-1,0-1.9,0.2-2.8,0.5c-0.9,0.3-1.6,0.9-2.2,1.5c0.1,0.5,0.2,1.2,0.2,2.1v13.1H645v-12.9c0-1.5-0.3-2.7-0.8-3.3
			c-0.5-0.7-1.5-1-2.9-1c-1.8,0-3.6,0.8-5.3,2.4v14.8h-4.6V517.1z"/>
		<path d="M668.8,536.3c-1.4-1.1-2.1-2.6-2.1-4.6c0-2,0.7-3.6,2-4.8c1.4-1.2,3.4-1.7,6.1-1.7h6.5v-0.9c0-1-0.2-1.8-0.5-2.3
			c-0.3-0.6-0.9-1-1.7-1.2c-0.8-0.3-2-0.4-3.4-0.4c-2.4,0-4.7,0.4-6.8,1.1v-3.5c1-0.4,2.1-0.7,3.4-0.9c1.3-0.2,2.7-0.3,4.2-0.3
			c3,0,5.3,0.6,6.9,1.8c1.5,1.2,2.3,3.2,2.3,5.8v13.1h-4l-0.3-2.1c-0.9,0.8-1.9,1.5-3.1,1.9c-1.2,0.4-2.7,0.6-4.5,0.6
			C671.9,537.9,670.2,537.4,668.8,536.3z M678.8,533.9c1.1-0.5,1.9-1.1,2.6-1.9v-3.6H675c-1.4,0-2.4,0.3-3,0.8
			c-0.6,0.5-0.9,1.3-0.9,2.5c0,1,0.3,1.8,1,2.3c0.7,0.5,1.7,0.7,3.1,0.7C676.5,534.6,677.8,534.3,678.8,533.9z"/>
		<path d="M692.3,536.3c-1.4-1.1-2.1-2.6-2.1-4.6c0-2,0.7-3.6,2-4.8s3.4-1.7,6.1-1.7h6.5v-0.9c0-1-0.2-1.8-0.5-2.3
			c-0.3-0.6-0.9-1-1.7-1.2c-0.8-0.3-2-0.4-3.4-0.4c-2.4,0-4.7,0.4-6.8,1.1v-3.5c1-0.4,2.1-0.7,3.4-0.9c1.3-0.2,2.7-0.3,4.2-0.3
			c3,0,5.3,0.6,6.9,1.8c1.5,1.2,2.3,3.2,2.3,5.8v13.1h-4l-0.3-2.1c-0.9,0.8-1.9,1.5-3.1,1.9c-1.2,0.4-2.7,0.6-4.5,0.6
			C695.4,537.9,693.7,537.4,692.3,536.3z M702.3,533.9c1.1-0.5,1.9-1.1,2.6-1.9v-3.6h-6.5c-1.4,0-2.4,0.3-3,0.8
			c-0.6,0.5-0.9,1.3-0.9,2.5c0,1,0.3,1.8,1,2.3c0.7,0.5,1.7,0.7,3.1,0.7C700.1,534.6,701.3,534.3,702.3,533.9z"/>
		<path d="M716.5,536.2c-1.1-1.1-1.6-2.7-1.6-4.8v-10.7h-3v-3.7h3v-4.7l4.6-1.4v6.1h5.4l-0.3,3.7h-5.1v10.4c0,1.2,0.3,2,0.8,2.5
			c0.5,0.5,1.4,0.7,2.7,0.7c0.8,0,1.6-0.1,2.5-0.4v3.3c-1.1,0.5-2.5,0.7-4.1,0.7C719.2,537.9,717.6,537.4,716.5,536.2z"/>
		<polygon points="732.3,520.7 729.2,520.7 729.6,517.1 737,517.1 737,537.5 732.3,537.5 		"/>
	</g>
</g>
<g>
	<circle class="st4" cx="890.3" cy="349.5" r="20"/>
	<path class="st4" d="M889.7,469c-9.7,5.4-18,7.9-26.2,7.9c-9.7,0-18.7-2.9-26.2-7.9v24.3c7.5,5,16.5,8,26.2,8
		c8.1,0,16.3-2.5,25.9-7.9c9.2-5.2,17.5-8.6,27.6-8.6c9.7,0,18.7,2.9,26.2,7.9v-24.3c-7.5-5-16.5-8-26.2-8
		C907.1,460.5,898.9,463.9,889.7,469z"/>
	<path class="st4" d="M889.7,433.5c-9.7,5.4-18,7.9-26.2,7.9c-9.7,0-18.7-2.9-26.2-7.9v24.3c7.5,5,16.5,8,26.2,8
		c8.1,0,16.3-2.5,25.9-7.9c9.2-5.2,17.5-8.6,27.6-8.6c9.7,0,18.7,2.9,26.2,7.9v-24.3c-7.5-5-16.5-8-26.2-8
		C907.1,424.9,898.9,428.3,889.7,433.5z"/>
	<path class="st4" d="M889.5,421.7c9.2-5.2,17.5-8.6,27.6-8.6c9.7,0,18.7,2.9,26.2,7.9v-24.3c-7.5-5-16.5-8-26.2-8
		c-10,0-18.2,3.4-27.3,8.5c-9.7,5.4-18,7.9-26.2,7.9c-9.7,0-18.7-2.9-26.2-7.9v24.3c7.5,5,16.5,8,26.2,8
		C871.6,429.6,879.9,427.1,889.5,421.7z"/>
	<g>
		<path class="st4" d="M837.3,517.1h4.3l0.2,2.2c2.2-1.7,4.6-2.6,7.2-2.6c1.4,0,2.5,0.2,3.4,0.7c0.8,0.4,1.5,1.1,1.9,2
			c1-0.8,2.2-1.5,3.4-2c1.2-0.5,2.7-0.7,4.3-0.7c2.3,0,4.1,0.6,5.2,1.8c1.1,1.2,1.7,3.1,1.7,5.5v13.5h-4.6v-13c0-1.5-0.3-2.6-1-3.3
			c-0.7-0.6-1.7-1-3.2-1c-1,0-1.9,0.2-2.8,0.5c-0.9,0.3-1.6,0.9-2.2,1.5c0.1,0.5,0.2,1.2,0.2,2.1v13.1h-4.3v-12.9
			c0-1.5-0.3-2.7-0.8-3.3c-0.5-0.7-1.5-1-2.9-1c-1.8,0-3.6,0.8-5.3,2.4v14.8h-4.6V517.1z"/>
		<path class="st4" d="M874.7,536.3c-1.4-1.1-2.1-2.6-2.1-4.6c0-2,0.7-3.6,2-4.8c1.4-1.2,3.4-1.7,6.1-1.7h6.5v-0.9
			c0-1-0.2-1.8-0.5-2.3c-0.3-0.6-0.9-1-1.7-1.2c-0.8-0.3-2-0.4-3.4-0.4c-2.4,0-4.7,0.4-6.8,1.1v-3.5c1-0.4,2.1-0.7,3.4-0.9
			c1.3-0.2,2.7-0.3,4.2-0.3c3,0,5.3,0.6,6.9,1.8c1.5,1.2,2.3,3.2,2.3,5.8v13.1h-4l-0.3-2.1c-0.9,0.8-1.9,1.5-3.1,1.9
			c-1.2,0.4-2.7,0.6-4.5,0.6C877.8,537.9,876.1,537.4,874.7,536.3z M884.7,533.9c1.1-0.5,1.9-1.1,2.6-1.9v-3.6h-6.5
			c-1.4,0-2.4,0.3-3,0.8c-0.6,0.5-0.9,1.3-0.9,2.5c0,1,0.3,1.8,1,2.3c0.7,0.5,1.7,0.7,3.1,0.7C882.5,534.6,883.7,534.3,884.7,533.9z
			"/>
		<path class="st4" d="M898.2,536.3c-1.4-1.1-2.1-2.6-2.1-4.6c0-2,0.7-3.6,2-4.8s3.4-1.7,6.1-1.7h6.5v-0.9c0-1-0.2-1.8-0.5-2.3
			c-0.3-0.6-0.9-1-1.7-1.2c-0.8-0.3-2-0.4-3.4-0.4c-2.4,0-4.7,0.4-6.8,1.1v-3.5c1-0.4,2.1-0.7,3.4-0.9c1.3-0.2,2.7-0.3,4.2-0.3
			c3,0,5.3,0.6,6.9,1.8c1.5,1.2,2.3,3.2,2.3,5.8v13.1h-4l-0.3-2.1c-0.9,0.8-1.9,1.5-3.1,1.9c-1.2,0.4-2.7,0.6-4.5,0.6
			C901.3,537.9,899.6,537.4,898.2,536.3z M908.3,533.9c1.1-0.5,1.9-1.1,2.6-1.9v-3.6h-6.5c-1.4,0-2.4,0.3-3,0.8
			c-0.6,0.5-0.9,1.3-0.9,2.5c0,1,0.3,1.8,1,2.3c0.7,0.5,1.7,0.7,3.1,0.7C906,534.6,907.2,534.3,908.3,533.9z"/>
		<path class="st4" d="M922.4,536.2c-1.1-1.1-1.6-2.7-1.6-4.8v-10.7h-3v-3.7h3v-4.7l4.6-1.4v6.1h5.4l-0.3,3.7h-5.1v10.4
			c0,1.2,0.3,2,0.8,2.5c0.5,0.5,1.4,0.7,2.7,0.7c0.8,0,1.6-0.1,2.5-0.4v3.3c-1.1,0.5-2.5,0.7-4.1,0.7
			C925.1,537.9,923.5,537.4,922.4,536.2z"/>
		<polygon class="st4" points="938.2,520.7 935.1,520.7 935.5,517.1 942.9,517.1 942.9,537.5 938.2,537.5 		"/>
	</g>
</g>
<g>
	<circle class="st5" cx="684.4" cy="607.1" r="20"/>
	<path class="st5" d="M683.8,726.6c-9.7,5.4-18,7.9-26.2,7.9c-9.7,0-18.7-2.9-26.2-7.9V751c7.5,5,16.5,8,26.2,8
		c8.1,0,16.3-2.5,25.9-7.9c9.2-5.2,17.5-8.6,27.6-8.6c9.7,0,18.7,2.9,26.2,7.9V726c-7.5-5-16.5-8-26.2-8
		C701.2,718.1,693,721.5,683.8,726.6z"/>
	<path class="st5" d="M683.8,691.1c-9.7,5.4-18,7.9-26.2,7.9c-9.7,0-18.7-2.9-26.2-7.9v24.3c7.5,5,16.5,8,26.2,8
		c8.1,0,16.3-2.5,25.9-7.9c9.2-5.2,17.5-8.6,27.6-8.6c9.7,0,18.7,2.9,26.2,7.9v-24.3c-7.5-5-16.5-8-26.2-8
		C701.2,682.5,693,685.9,683.8,691.1z"/>
	<path class="st5" d="M683.6,679.3c9.2-5.2,17.5-8.6,27.6-8.6c9.7,0,18.7,2.9,26.2,7.9v-24.3c-7.5-5-16.5-8-26.2-8
		c-10,0-18.2,3.4-27.3,8.5c-9.7,5.4-18,7.9-26.2,7.9c-9.7,0-18.7-2.9-26.2-7.9v24.3c7.5,5,16.5,8,26.2,8
		C665.7,687.2,674,684.7,683.6,679.3z"/>
	<g>
		<path class="st5" d="M631.4,774.7h4.3l0.2,2.2c2.2-1.7,4.6-2.6,7.2-2.6c1.4,0,2.5,0.2,3.4,0.7c0.8,0.4,1.5,1.1,1.9,2
			c1-0.8,2.2-1.5,3.4-2c1.2-0.5,2.7-0.7,4.3-0.7c2.3,0,4.1,0.6,5.2,1.8c1.1,1.2,1.7,3.1,1.7,5.5v13.5h-4.6v-13c0-1.5-0.3-2.6-1-3.3
			c-0.7-0.6-1.7-1-3.2-1c-1,0-1.9,0.2-2.8,0.5c-0.9,0.3-1.6,0.9-2.2,1.5c0.1,0.5,0.2,1.2,0.2,2.1v13.1H645v-12.9
			c0-1.5-0.3-2.7-0.8-3.3c-0.5-0.7-1.5-1-2.9-1c-1.8,0-3.6,0.8-5.3,2.4v14.8h-4.6V774.7z"/>
		<path class="st5" d="M668.8,793.9c-1.4-1.1-2.1-2.6-2.1-4.6c0-2,0.7-3.6,2-4.8c1.4-1.2,3.4-1.7,6.1-1.7h6.5v-0.9
			c0-1-0.2-1.8-0.5-2.3c-0.3-0.6-0.9-1-1.7-1.2c-0.8-0.3-2-0.4-3.4-0.4c-2.4,0-4.7,0.4-6.8,1.1v-3.5c1-0.4,2.1-0.7,3.4-0.9
			c1.3-0.2,2.7-0.3,4.2-0.3c3,0,5.3,0.6,6.9,1.8c1.5,1.2,2.3,3.2,2.3,5.8v13.1h-4l-0.3-2.1c-0.9,0.8-1.9,1.5-3.1,1.9
			c-1.2,0.4-2.7,0.6-4.5,0.6C671.9,795.5,670.2,795,668.8,793.9z M678.8,791.5c1.1-0.5,1.9-1.1,2.6-1.9V786H675
			c-1.4,0-2.4,0.3-3,0.8c-0.6,0.5-0.9,1.3-0.9,2.5c0,1,0.3,1.8,1,2.3c0.7,0.5,1.7,0.7,3.1,0.7C676.5,792.2,677.8,791.9,678.8,791.5z
			"/>
		<path class="st5" d="M692.3,793.9c-1.4-1.1-2.1-2.6-2.1-4.6c0-2,0.7-3.6,2-4.8s3.4-1.7,6.1-1.7h6.5v-0.9c0-1-0.2-1.8-0.5-2.3
			c-0.3-0.6-0.9-1-1.7-1.2c-0.8-0.3-2-0.4-3.4-0.4c-2.4,0-4.7,0.4-6.8,1.1v-3.5c1-0.4,2.1-0.7,3.4-0.9s2.7-0.3,4.2-0.3
			c3,0,5.3,0.6,6.9,1.8c1.5,1.2,2.3,3.2,2.3,5.8v13.1h-4l-0.3-2.1c-0.9,0.8-1.9,1.5-3.1,1.9c-1.2,0.4-2.7,0.6-4.5,0.6
			C695.4,795.5,693.7,795,692.3,793.9z M702.3,791.5c1.1-0.5,1.9-1.1,2.6-1.9V786h-6.5c-1.4,0-2.4,0.3-3,0.8
			c-0.6,0.5-0.9,1.3-0.9,2.5c0,1,0.3,1.8,1,2.3c0.7,0.5,1.7,0.7,3.1,0.7C700.1,792.2,701.3,791.9,702.3,791.5z"/>
		<path class="st5" d="M716.5,793.8c-1.1-1.1-1.6-2.7-1.6-4.8v-10.7h-3v-3.7h3V770l4.6-1.4v6.1h5.4l-0.3,3.7h-5.1v10.4
			c0,1.2,0.3,2,0.8,2.5c0.5,0.5,1.4,0.7,2.7,0.7c0.8,0,1.6-0.1,2.5-0.4v3.3c-1.1,0.5-2.5,0.7-4.1,0.7
			C719.2,795.5,717.6,795,716.5,793.8z"/>
		<polygon class="st5" points="732.3,778.3 729.2,778.3 729.6,774.7 737,774.7 737,795.1 732.3,795.1 		"/>
	</g>
</g>
<g>
	<circle class="st3" cx="890.3" cy="607.1" r="20"/>
	<path class="st3" d="M889.7,726.6c-9.7,5.4-18,7.9-26.2,7.9c-9.7,0-18.7-2.9-26.2-7.9V751c7.5,5,16.5,8,26.2,8
		c8.1,0,16.3-2.5,25.9-7.9c9.2-5.2,17.5-8.6,27.6-8.6c9.7,0,18.7,2.9,26.2,7.9V726c-7.5-5-16.5-8-26.2-8
		C907.1,718.1,898.9,721.5,889.7,726.6z"/>
	<path class="st3" d="M889.7,691.1c-9.7,5.4-18,7.9-26.2,7.9c-9.7,0-18.7-2.9-26.2-7.9v24.3c7.5,5,16.5,8,26.2,8
		c8.1,0,16.3-2.5,25.9-7.9c9.2-5.2,17.5-8.6,27.6-8.6c9.7,0,18.7,2.9,26.2,7.9v-24.3c-7.5-5-16.5-8-26.2-8
		C907.1,682.5,898.9,685.9,889.7,691.1z"/>
	<path class="st3" d="M889.5,679.3c9.2-5.2,17.5-8.6,27.6-8.6c9.7,0,18.7,2.9,26.2,7.9v-24.3c-7.5-5-16.5-8-26.2-8
		c-10,0-18.2,3.4-27.3,8.5c-9.7,5.4-18,7.9-26.2,7.9c-9.7,0-18.7-2.9-26.2-7.9v24.3c7.5,5,16.5,8,26.2,8
		C871.6,687.2,879.9,684.7,889.5,679.3z"/>
	<g>
		<path class="st3" d="M837.3,774.7h4.3l0.2,2.2c2.2-1.7,4.6-2.6,7.2-2.6c1.4,0,2.5,0.2,3.4,0.7c0.8,0.4,1.5,1.1,1.9,2
			c1-0.8,2.2-1.5,3.4-2c1.2-0.5,2.7-0.7,4.3-0.7c2.3,0,4.1,0.6,5.2,1.8c1.1,1.2,1.7,3.1,1.7,5.5v13.5h-4.6v-13c0-1.5-0.3-2.6-1-3.3
			c-0.7-0.6-1.7-1-3.2-1c-1,0-1.9,0.2-2.8,0.5c-0.9,0.3-1.6,0.9-2.2,1.5c0.1,0.5,0.2,1.2,0.2,2.1v13.1h-4.3v-12.9
			c0-1.5-0.3-2.7-0.8-3.3c-0.5-0.7-1.5-1-2.9-1c-1.8,0-3.6,0.8-5.3,2.4v14.8h-4.6V774.7z"/>
		<path class="st3" d="M874.7,793.9c-1.4-1.1-2.1-2.6-2.1-4.6c0-2,0.7-3.6,2-4.8c1.4-1.2,3.4-1.7,6.1-1.7h6.5v-0.9
			c0-1-0.2-1.8-0.5-2.3c-0.3-0.6-0.9-1-1.7-1.2c-0.8-0.3-2-0.4-3.4-0.4c-2.4,0-4.7,0.4-6.8,1.1v-3.5c1-0.4,2.1-0.7,3.4-0.9
			c1.3-0.2,2.7-0.3,4.2-0.3c3,0,5.3,0.6,6.9,1.8c1.5,1.2,2.3,3.2,2.3,5.8v13.1h-4l-0.3-2.1c-0.9,0.8-1.9,1.5-3.1,1.9
			c-1.2,0.4-2.7,0.6-4.5,0.6C877.8,795.5,876.1,795,874.7,793.9z M884.7,791.5c1.1-0.5,1.9-1.1,2.6-1.9V786h-6.5
			c-1.4,0-2.4,0.3-3,0.8c-0.6,0.5-0.9,1.3-0.9,2.5c0,1,0.3,1.8,1,2.3c0.7,0.5,1.7,0.7,3.1,0.7C882.5,792.2,883.7,791.9,884.7,791.5z
			"/>
		<path class="st3" d="M898.2,793.9c-1.4-1.1-2.1-2.6-2.1-4.6c0-2,0.7-3.6,2-4.8s3.4-1.7,6.1-1.7h6.5v-0.9c0-1-0.2-1.8-0.5-2.3
			c-0.3-0.6-0.9-1-1.7-1.2c-0.8-0.3-2-0.4-3.4-0.4c-2.4,0-4.7,0.4-6.8,1.1v-3.5c1-0.4,2.1-0.7,3.4-0.9s2.7-0.3,4.2-0.3
			c3,0,5.3,0.6,6.9,1.8c1.5,1.2,2.3,3.2,2.3,5.8v13.1h-4L911,793c-0.9,0.8-1.9,1.5-3.1,1.9c-1.2,0.4-2.7,0.6-4.5,0.6
			C901.3,795.5,899.6,795,898.2,793.9z M908.3,791.5c1.1-0.5,1.9-1.1,2.6-1.9V786h-6.5c-1.4,0-2.4,0.3-3,0.8
			c-0.6,0.5-0.9,1.3-0.9,2.5c0,1,0.3,1.8,1,2.3c0.7,0.5,1.7,0.7,3.1,0.7C906,792.2,907.2,791.9,908.3,791.5z"/>
		<path class="st3" d="M922.4,793.8c-1.1-1.1-1.6-2.7-1.6-4.8v-10.7h-3v-3.7h3V770l4.6-1.4v6.1h5.4l-0.3,3.7h-5.1v10.4
			c0,1.2,0.3,2,0.8,2.5c0.5,0.5,1.4,0.7,2.7,0.7c0.8,0,1.6-0.1,2.5-0.4v3.3c-1.1,0.5-2.5,0.7-4.1,0.7
			C925.1,795.5,923.5,795,922.4,793.8z"/>
		<polygon class="st3" points="938.2,778.3 935.1,778.3 935.5,774.7 942.9,774.7 942.9,795.1 938.2,795.1 		"/>
	</g>
</g>
</svg>
