<?xml version="1.0" encoding="utf-8"?>
<!-- Generator: Adobe Illustrator 22.1.0, SVG Export Plug-In . SVG Version: 6.00 Build 0)  -->
<svg version="1.1" id="Capa_1" xmlns="http://www.w3.org/2000/svg" xmlns:xlink="http://www.w3.org/1999/xlink" x="0px" y="0px"
	 viewBox="0 0 331.7 563.5" style="enable-background:new 0 0 331.7 563.5;" xml:space="preserve">
<style type="text/css">
	.st0{fill:#FAAD17;}
	.st1{fill:#D3805C;}
	.st2{fill:#C54525;}
	.st3{fill:#672812;}
</style>
<g>
	<circle class="st0" cx="165.8" cy="92.1" r="45"/>
	<path class="st1" d="M164.5,361.2c-21.8,12.2-40.6,17.8-58.9,17.8c-21.8,0-42.1-6.5-59.1-17.7V416c16.9,11.3,37.2,17.9,59.1,17.9
		c18.2,0,36.7-5.6,58.4-17.7c20.8-11.6,39.4-19.3,62.1-19.3c21.8,0,42.1,6.5,59.1,17.7v-54.7c-16.9-11.3-37.2-17.9-59.1-17.9
		C203.6,342,185.2,349.7,164.5,361.2z"/>
	<path class="st2" d="M164.5,281.1c-21.8,12.2-40.6,17.8-58.9,17.8c-21.8,0-42.1-6.5-59.1-17.7V336c16.9,11.3,37.2,17.9,59.1,17.9
		c18.2,0,36.7-5.6,58.4-17.7c20.8-11.6,39.4-19.3,62.1-19.3c21.8,0,42.1,6.5,59.1,17.7v-54.7c-16.9-11.3-37.2-17.9-59.1-17.9
		C203.6,261.9,185.2,269.6,164.5,281.1z"/>
	<path class="st3" d="M164,254.6c20.8-11.6,39.4-19.3,62.1-19.3c21.8,0,42.1,6.5,59.1,17.7v-54.7c-16.9-11.3-37.2-17.9-59.1-17.9
		c-22.5,0-40.9,7.7-61.6,19.2c-21.8,12.2-40.6,17.8-58.9,17.8c-21.8,0-42.1-6.5-59.1-17.7v54.7c16.9,11.3,37.2,17.9,59.1,17.9
		C123.8,272.3,142.3,266.7,164,254.6z"/>
	<g>
		<path class="st3" d="M46.5,469.5h9.7l0.5,4.8c4.9-3.9,10.3-5.8,16.2-5.8c3.2,0,5.7,0.5,7.6,1.5c1.9,1,3.3,2.5,4.4,4.5
			c2.3-1.9,4.9-3.3,7.7-4.4c2.8-1.1,6-1.6,9.6-1.6c5.3,0,9.2,1.4,11.7,4.1c2.5,2.7,3.8,6.9,3.8,12.5v30.3h-10.4v-29.3
			c0-3.5-0.7-6-2.2-7.4c-1.5-1.5-3.9-2.2-7.3-2.2c-2.2,0-4.3,0.4-6.3,1.2c-2,0.8-3.7,1.9-5,3.5c0.3,1.2,0.5,2.8,0.5,4.7v29.4h-9.8
			v-29.2c0-3.5-0.6-6-1.8-7.5c-1.2-1.5-3.4-2.2-6.5-2.2c-4.1,0-8,1.8-11.9,5.4v33.4H46.5V469.5z"/>
		<path class="st3" d="M130.7,512.8c-3.1-2.4-4.7-5.9-4.7-10.4c0-4.5,1.5-8.1,4.6-10.7c3.1-2.6,7.7-3.9,13.8-3.9h14.7v-2
			c0-2.3-0.3-4-1-5.3c-0.7-1.3-1.9-2.2-3.7-2.8c-1.8-0.6-4.4-0.9-7.7-0.9c-5.4,0-10.5,0.8-15.2,2.4v-7.8c2.2-0.8,4.8-1.5,7.7-2
			c3-0.5,6.1-0.8,9.4-0.8c6.8,0,12,1.4,15.4,4.2c3.5,2.8,5.2,7.2,5.2,13.2v29.5h-9l-0.7-4.6c-1.9,1.9-4.3,3.3-7.1,4.2
			c-2.8,0.9-6.2,1.4-10.2,1.4C137.7,516.4,133.8,515.2,130.7,512.8z M153.2,507.3c2.4-1,4.4-2.5,5.9-4.4v-8h-14.5
			c-3.1,0-5.3,0.6-6.7,1.7c-1.4,1.2-2.1,3-2.1,5.5c0,2.3,0.8,4,2.3,5.1c1.5,1.1,3.9,1.6,7,1.6C148.1,508.9,150.9,508.4,153.2,507.3z
			"/>
		<path class="st3" d="M183.7,512.8c-3.1-2.4-4.6-5.9-4.6-10.4c0-4.5,1.5-8.1,4.6-10.7s7.7-3.9,13.8-3.9h14.7v-2c0-2.3-0.3-4-1-5.3
			c-0.7-1.3-1.9-2.2-3.7-2.8c-1.8-0.6-4.4-0.9-7.7-0.9c-5.4,0-10.5,0.8-15.2,2.4v-7.8c2.2-0.8,4.8-1.5,7.7-2c3-0.5,6.1-0.8,9.4-0.8
			c6.8,0,12,1.4,15.4,4.2c3.5,2.8,5.2,7.2,5.2,13.2v29.5h-9l-0.7-4.6c-1.9,1.9-4.3,3.3-7.1,4.2c-2.8,0.9-6.2,1.4-10.2,1.4
			C190.6,516.4,186.8,515.2,183.7,512.8z M206.2,507.3c2.4-1,4.4-2.5,5.9-4.4v-8h-14.5c-3.1,0-5.3,0.6-6.7,1.7
			c-1.4,1.2-2.1,3-2.1,5.5c0,2.3,0.8,4,2.3,5.1c1.5,1.1,3.9,1.6,7,1.6C201.1,508.9,203.8,508.4,206.2,507.3z"/>
		<path class="st3" d="M238.1,512.6c-2.5-2.6-3.7-6.2-3.7-10.8v-24h-6.8v-8.2h6.8V459l10.5-3.2v13.8h12.2l-0.7,8.2h-11.5v23.4
			c0,2.6,0.6,4.5,1.8,5.6c1.2,1.1,3.2,1.6,6.1,1.6c1.7,0,3.6-0.3,5.5-1v7.5c-2.5,1-5.6,1.5-9.2,1.5
			C244.2,516.4,240.6,515.2,238.1,512.6z"/>
		<polygon class="st3" points="273.7,477.6 266.7,477.6 267.6,469.5 284.2,469.5 284.2,515.5 273.7,515.5 		"/>
	</g>
</g>
</svg>
